<svg xmlns="http://www.w3.org/2000/svg" version="1.1" xmlns:xlink="http://www.w3.org/1999/xlink" xmlns:svgjs="http://svgjs.com/svgjs" width="1440" height="560" preserveAspectRatio="none" viewBox="0 0 1440 560"><g mask="url(&quot;#SvgjsMask1096&quot;)" fill="none"><rect width="1440" height="560" x="0" y="0" fill="#0e2a47"></rect><path d="M0,719.777C132.287,725.63,230.734,601.579,331.103,515.207C419.29,439.318,501.346,356.801,546.431,249.547C590.643,144.369,599.977,28.998,582.902,-83.809C565.916,-196.029,531.689,-311.188,449.68,-389.65C370.424,-465.478,251.783,-468.211,147.05,-500.806C40.301,-534.028,-59.584,-590.162,-171.144,-582.862C-299.343,-574.474,-452.609,-561.401,-527.058,-456.698C-602.043,-351.24,-543.429,-205.213,-531.274,-76.386C-521.814,23.885,-500.409,117.995,-463.978,211.891C-425.376,311.381,-384.77,407.928,-312.793,486.716C-223.282,584.697,-132.582,713.91,0,719.777" fill="#0a1e32"></path><path d="M1440 1033.91C1533.306 1051.676 1641.799 1048.595 1715.483 988.6600000000001 1788.355 929.385 1789.754 821.383 1813.129 730.402 1832.567 654.744 1855.249 579.122 1840.408 502.43 1825.973 427.837 1778.101 367.438 1731.306 307.582 1682.18 244.74400000000003 1638.212 168.065 1561.615 145.81799999999998 1485.061 123.584 1406.157 162.77999999999997 1331.814 191.55399999999997 1262.841 218.25 1208.276 264.613 1147.143 306.238 1062.596 363.80600000000004 933.482 385.007 903.898 482.92 875.043 578.422 950.063 677.025 1011.318 755.7719999999999 1064.542 824.196 1151.867 848.005 1224.588 895.188 1297.715 942.635 1354.368 1017.605 1440 1033.91" fill="#12365c"></path></g><defs><mask id="SvgjsMask1096"><rect width="1440" height="560" fill="#ffffff"></rect></mask></defs></svg>